<svg xmlns="http://www.w3.org/2000/svg" preserveAspectRatio="none" viewBox="0 0 3840 2160">
  <rect x="0" y="0" width="3840" height="2160" fill="#FFC037"></rect><defs><linearGradient x1="43.8%" y1="0%" x2="100%" y2="100%"><stop offset="14.444444444444446%" stop-color="#ffc037" stop-opacity="1"></stop><stop offset="85.55555555555554%" stop-color="#ffc037" stop-opacity="1"></stop></linearGradient></defs><defs><linearGradient id="grad2_0" x1="0%" y1="0%" x2="56.3%" y2="100%"><stop offset="14.444444444444446%" stop-color="#ffc037" stop-opacity="1"></stop><stop offset="85.55555555555554%" stop-color="#ffc037" stop-opacity="1"></stop></linearGradient></defs><g transform="translate(3840, 0)"><path d="M0 1787C-182.6 1645 -365.3 1503 -603.1 1456C-840.9 1409 -1133.9 1457 -1353.4 1353.4C-1572.9 1249.8 -1718.8 994.8 -1796 743.9C-1873.2 493.1 -1881.6 246.6 -1890 0L0 0Z" fill="#dbeef2"></path></g><g transform="translate(0, 2160)"><path d="M0 -1625C216.7 -1628.8 433.4 -1632.7 661.3 -1596.5C889.1 -1560.2 1128.2 -1484 1338.6 -1338.6C1548.9 -1193.1 1730.7 -978.6 1796 -743.9C1861.3 -509.3 1810.2 -254.7 1759 0L0 0Z" fill="#dbeef2"></path></g></svg>